<mxfile host="app.diagrams.net" modified="2023-10-18T09:23:35.457Z" agent="Mozilla/5.0 (Windows NT 10.0; Win64; x64) AppleWebKit/537.36 (KHTML, like Gecko) Chrome/118.0.0.0 Safari/537.36" etag="UUW3LNhoUpbTaCe5N7OO" version="22.0.4" type="device">
  <diagram name="1 oldal" id="IYVcA7oQ9cyChjYhnWGt">
    <mxGraphModel dx="5254" dy="945" grid="1" gridSize="10" guides="1" tooltips="1" connect="1" arrows="1" fold="1" page="1" pageScale="1" pageWidth="3300" pageHeight="4681" math="0" shadow="0">
      <root>
        <mxCell id="0" />
        <mxCell id="1" parent="0" />
        <mxCell id="JYLx7IT0yjpOkWcfXpyr-3" value="Bár" style="ellipse;whiteSpace=wrap;html=1;align=center;" vertex="1" parent="1">
          <mxGeometry x="90" y="980" width="100" height="40" as="geometry" />
        </mxCell>
        <mxCell id="JYLx7IT0yjpOkWcfXpyr-4" value="Alkalmazott" style="ellipse;whiteSpace=wrap;html=1;align=center;" vertex="1" parent="1">
          <mxGeometry x="460" y="130" width="100" height="40" as="geometry" />
        </mxCell>
        <mxCell id="JYLx7IT0yjpOkWcfXpyr-6" value="Résztvevő" style="ellipse;whiteSpace=wrap;html=1;align=center;" vertex="1" parent="1">
          <mxGeometry x="450" y="380" width="100" height="40" as="geometry" />
        </mxCell>
        <mxCell id="JYLx7IT0yjpOkWcfXpyr-7" value="Nyelvtudás" style="ellipse;whiteSpace=wrap;html=1;align=center;" vertex="1" parent="1">
          <mxGeometry x="1005" y="765" width="100" height="40" as="geometry" />
        </mxCell>
        <mxCell id="JYLx7IT0yjpOkWcfXpyr-8" value="Fesztivál" style="ellipse;whiteSpace=wrap;html=1;align=center;" vertex="1" parent="1">
          <mxGeometry x="80" y="490" width="100" height="40" as="geometry" />
        </mxCell>
        <mxCell id="JYLx7IT0yjpOkWcfXpyr-9" value="Fellépő" style="ellipse;whiteSpace=wrap;html=1;align=center;" vertex="1" parent="1">
          <mxGeometry x="90" y="150" width="100" height="40" as="geometry" />
        </mxCell>
        <mxCell id="JYLx7IT0yjpOkWcfXpyr-10" value="Tulajdonos" style="ellipse;whiteSpace=wrap;html=1;align=center;" vertex="1" parent="1">
          <mxGeometry x="1070" y="140" width="100" height="40" as="geometry" />
        </mxCell>
        <mxCell id="JYLx7IT0yjpOkWcfXpyr-12" value="FEL_ID" style="shape=rhombus;perimeter=rhombusPerimeter;whiteSpace=wrap;html=1;align=center;" vertex="1" parent="1">
          <mxGeometry x="160" y="220" width="120" height="60" as="geometry" />
        </mxCell>
        <mxCell id="JYLx7IT0yjpOkWcfXpyr-13" value="FESZ_ID" style="shape=rhombus;perimeter=rhombusPerimeter;whiteSpace=wrap;html=1;align=center;" vertex="1" parent="1">
          <mxGeometry x="150" y="550" width="120" height="60" as="geometry" />
        </mxCell>
        <mxCell id="JYLx7IT0yjpOkWcfXpyr-14" value="B_ID" style="shape=rhombus;perimeter=rhombusPerimeter;whiteSpace=wrap;html=1;align=center;" vertex="1" parent="1">
          <mxGeometry x="170" y="1050" width="120" height="60" as="geometry" />
        </mxCell>
        <mxCell id="JYLx7IT0yjpOkWcfXpyr-15" value="A_ID" style="shape=rhombus;perimeter=rhombusPerimeter;whiteSpace=wrap;html=1;align=center;" vertex="1" parent="1">
          <mxGeometry x="560" y="210" width="120" height="60" as="geometry" />
        </mxCell>
        <mxCell id="JYLx7IT0yjpOkWcfXpyr-16" value="R_ID" style="shape=rhombus;perimeter=rhombusPerimeter;whiteSpace=wrap;html=1;align=center;" vertex="1" parent="1">
          <mxGeometry x="610" y="455" width="120" height="60" as="geometry" />
        </mxCell>
        <mxCell id="JYLx7IT0yjpOkWcfXpyr-17" value="NY_ID" style="shape=rhombus;perimeter=rhombusPerimeter;whiteSpace=wrap;html=1;align=center;" vertex="1" parent="1">
          <mxGeometry x="1090" y="857.5" width="120" height="60" as="geometry" />
        </mxCell>
        <mxCell id="JYLx7IT0yjpOkWcfXpyr-18" value="T_ID" style="shape=rhombus;perimeter=rhombusPerimeter;whiteSpace=wrap;html=1;align=center;" vertex="1" parent="1">
          <mxGeometry x="1170" y="230" width="120" height="60" as="geometry" />
        </mxCell>
        <mxCell id="JYLx7IT0yjpOkWcfXpyr-19" value="név" style="ellipse;whiteSpace=wrap;html=1;align=center;" vertex="1" parent="1">
          <mxGeometry x="-15" y="200" width="60" height="30" as="geometry" />
        </mxCell>
        <mxCell id="JYLx7IT0yjpOkWcfXpyr-21" value="ország" style="ellipse;whiteSpace=wrap;html=1;align=center;" vertex="1" parent="1">
          <mxGeometry x="50" y="250" width="60" height="30" as="geometry" />
        </mxCell>
        <mxCell id="JYLx7IT0yjpOkWcfXpyr-22" value="díj" style="ellipse;whiteSpace=wrap;html=1;align=center;" vertex="1" parent="1">
          <mxGeometry x="110" y="280" width="60" height="30" as="geometry" />
        </mxCell>
        <mxCell id="JYLx7IT0yjpOkWcfXpyr-23" value="" style="endArrow=none;html=1;rounded=0;exitX=0.5;exitY=1;exitDx=0;exitDy=0;entryX=0.5;entryY=0;entryDx=0;entryDy=0;" edge="1" parent="1" source="JYLx7IT0yjpOkWcfXpyr-9" target="JYLx7IT0yjpOkWcfXpyr-12">
          <mxGeometry relative="1" as="geometry">
            <mxPoint x="360" y="230" as="sourcePoint" />
            <mxPoint x="520" y="230" as="targetPoint" />
          </mxGeometry>
        </mxCell>
        <mxCell id="JYLx7IT0yjpOkWcfXpyr-24" value="" style="endArrow=none;html=1;rounded=0;exitX=0.5;exitY=1;exitDx=0;exitDy=0;entryX=0.5;entryY=0;entryDx=0;entryDy=0;" edge="1" parent="1" source="JYLx7IT0yjpOkWcfXpyr-9" target="JYLx7IT0yjpOkWcfXpyr-19">
          <mxGeometry relative="1" as="geometry">
            <mxPoint x="360" y="230" as="sourcePoint" />
            <mxPoint x="520" y="230" as="targetPoint" />
          </mxGeometry>
        </mxCell>
        <mxCell id="JYLx7IT0yjpOkWcfXpyr-25" value="" style="endArrow=none;html=1;rounded=0;exitX=0.5;exitY=1;exitDx=0;exitDy=0;entryX=0.5;entryY=0;entryDx=0;entryDy=0;" edge="1" parent="1" source="JYLx7IT0yjpOkWcfXpyr-9" target="JYLx7IT0yjpOkWcfXpyr-21">
          <mxGeometry relative="1" as="geometry">
            <mxPoint x="360" y="230" as="sourcePoint" />
            <mxPoint x="520" y="230" as="targetPoint" />
          </mxGeometry>
        </mxCell>
        <mxCell id="JYLx7IT0yjpOkWcfXpyr-26" value="" style="endArrow=none;html=1;rounded=0;exitX=0.5;exitY=1;exitDx=0;exitDy=0;entryX=0.5;entryY=0;entryDx=0;entryDy=0;" edge="1" parent="1" source="JYLx7IT0yjpOkWcfXpyr-9" target="JYLx7IT0yjpOkWcfXpyr-22">
          <mxGeometry relative="1" as="geometry">
            <mxPoint x="360" y="230" as="sourcePoint" />
            <mxPoint x="520" y="230" as="targetPoint" />
          </mxGeometry>
        </mxCell>
        <mxCell id="JYLx7IT0yjpOkWcfXpyr-27" value="név" style="ellipse;whiteSpace=wrap;html=1;align=center;" vertex="1" parent="1">
          <mxGeometry x="-40" y="540" width="60" height="30" as="geometry" />
        </mxCell>
        <mxCell id="JYLx7IT0yjpOkWcfXpyr-28" value="helyszín" style="ellipse;whiteSpace=wrap;html=1;align=center;" vertex="1" parent="1">
          <mxGeometry x="30" y="580" width="60" height="30" as="geometry" />
        </mxCell>
        <mxCell id="JYLx7IT0yjpOkWcfXpyr-29" value="év" style="ellipse;whiteSpace=wrap;html=1;align=center;" vertex="1" parent="1">
          <mxGeometry x="90" y="610" width="60" height="30" as="geometry" />
        </mxCell>
        <mxCell id="JYLx7IT0yjpOkWcfXpyr-30" value="" style="endArrow=none;html=1;rounded=0;exitX=0.5;exitY=1;exitDx=0;exitDy=0;entryX=0.5;entryY=0;entryDx=0;entryDy=0;" edge="1" parent="1" source="JYLx7IT0yjpOkWcfXpyr-8" target="JYLx7IT0yjpOkWcfXpyr-27">
          <mxGeometry relative="1" as="geometry">
            <mxPoint x="210" y="390" as="sourcePoint" />
            <mxPoint x="370" y="390" as="targetPoint" />
          </mxGeometry>
        </mxCell>
        <mxCell id="JYLx7IT0yjpOkWcfXpyr-31" value="" style="endArrow=none;html=1;rounded=0;exitX=0.5;exitY=1;exitDx=0;exitDy=0;entryX=0.5;entryY=0;entryDx=0;entryDy=0;" edge="1" parent="1" source="JYLx7IT0yjpOkWcfXpyr-8" target="JYLx7IT0yjpOkWcfXpyr-28">
          <mxGeometry relative="1" as="geometry">
            <mxPoint x="210" y="390" as="sourcePoint" />
            <mxPoint x="370" y="390" as="targetPoint" />
          </mxGeometry>
        </mxCell>
        <mxCell id="JYLx7IT0yjpOkWcfXpyr-32" value="" style="endArrow=none;html=1;rounded=0;exitX=0.5;exitY=1;exitDx=0;exitDy=0;entryX=0.5;entryY=0;entryDx=0;entryDy=0;" edge="1" parent="1" source="JYLx7IT0yjpOkWcfXpyr-8" target="JYLx7IT0yjpOkWcfXpyr-29">
          <mxGeometry relative="1" as="geometry">
            <mxPoint x="210" y="390" as="sourcePoint" />
            <mxPoint x="370" y="390" as="targetPoint" />
          </mxGeometry>
        </mxCell>
        <mxCell id="JYLx7IT0yjpOkWcfXpyr-33" value="" style="endArrow=none;html=1;rounded=0;exitX=0.5;exitY=1;exitDx=0;exitDy=0;entryX=0.5;entryY=0;entryDx=0;entryDy=0;" edge="1" parent="1" source="JYLx7IT0yjpOkWcfXpyr-8" target="JYLx7IT0yjpOkWcfXpyr-13">
          <mxGeometry relative="1" as="geometry">
            <mxPoint x="210" y="390" as="sourcePoint" />
            <mxPoint x="370" y="390" as="targetPoint" />
          </mxGeometry>
        </mxCell>
        <mxCell id="JYLx7IT0yjpOkWcfXpyr-34" value="név" style="ellipse;whiteSpace=wrap;html=1;align=center;" vertex="1" parent="1">
          <mxGeometry x="-15" y="1060" width="60" height="30" as="geometry" />
        </mxCell>
        <mxCell id="JYLx7IT0yjpOkWcfXpyr-35" value="cég" style="ellipse;whiteSpace=wrap;html=1;align=center;" vertex="1" parent="1">
          <mxGeometry x="50" y="1090" width="60" height="30" as="geometry" />
        </mxCell>
        <mxCell id="JYLx7IT0yjpOkWcfXpyr-36" value="ital" style="ellipse;shape=doubleEllipse;margin=3;whiteSpace=wrap;html=1;align=center;" vertex="1" parent="1">
          <mxGeometry x="130" y="1120" width="60" height="30" as="geometry" />
        </mxCell>
        <mxCell id="JYLx7IT0yjpOkWcfXpyr-37" value="" style="endArrow=none;html=1;rounded=0;exitX=0.5;exitY=1;exitDx=0;exitDy=0;entryX=0.5;entryY=0;entryDx=0;entryDy=0;" edge="1" parent="1" source="JYLx7IT0yjpOkWcfXpyr-3" target="JYLx7IT0yjpOkWcfXpyr-34">
          <mxGeometry relative="1" as="geometry">
            <mxPoint x="210" y="670" as="sourcePoint" />
            <mxPoint x="370" y="670" as="targetPoint" />
          </mxGeometry>
        </mxCell>
        <mxCell id="JYLx7IT0yjpOkWcfXpyr-38" value="" style="endArrow=none;html=1;rounded=0;exitX=0.5;exitY=1;exitDx=0;exitDy=0;entryX=0.5;entryY=0;entryDx=0;entryDy=0;" edge="1" parent="1" source="JYLx7IT0yjpOkWcfXpyr-3" target="JYLx7IT0yjpOkWcfXpyr-35">
          <mxGeometry relative="1" as="geometry">
            <mxPoint x="210" y="670" as="sourcePoint" />
            <mxPoint x="370" y="670" as="targetPoint" />
          </mxGeometry>
        </mxCell>
        <mxCell id="JYLx7IT0yjpOkWcfXpyr-39" value="" style="endArrow=none;html=1;rounded=0;exitX=0.5;exitY=1;exitDx=0;exitDy=0;entryX=0.5;entryY=0;entryDx=0;entryDy=0;" edge="1" parent="1" source="JYLx7IT0yjpOkWcfXpyr-3" target="JYLx7IT0yjpOkWcfXpyr-36">
          <mxGeometry relative="1" as="geometry">
            <mxPoint x="210" y="670" as="sourcePoint" />
            <mxPoint x="370" y="670" as="targetPoint" />
          </mxGeometry>
        </mxCell>
        <mxCell id="JYLx7IT0yjpOkWcfXpyr-40" value="" style="endArrow=none;html=1;rounded=0;exitX=0.5;exitY=1;exitDx=0;exitDy=0;entryX=0.5;entryY=0;entryDx=0;entryDy=0;" edge="1" parent="1" source="JYLx7IT0yjpOkWcfXpyr-3" target="JYLx7IT0yjpOkWcfXpyr-14">
          <mxGeometry relative="1" as="geometry">
            <mxPoint x="210" y="670" as="sourcePoint" />
            <mxPoint x="370" y="670" as="targetPoint" />
          </mxGeometry>
        </mxCell>
        <mxCell id="JYLx7IT0yjpOkWcfXpyr-41" value="név" style="ellipse;whiteSpace=wrap;html=1;align=center;" vertex="1" parent="1">
          <mxGeometry x="355" y="190" width="60" height="30" as="geometry" />
        </mxCell>
        <mxCell id="JYLx7IT0yjpOkWcfXpyr-42" value="fizetés" style="ellipse;whiteSpace=wrap;html=1;align=center;" vertex="1" parent="1">
          <mxGeometry x="410" y="230" width="60" height="30" as="geometry" />
        </mxCell>
        <mxCell id="JYLx7IT0yjpOkWcfXpyr-43" value="műszak" style="ellipse;shape=doubleEllipse;margin=3;whiteSpace=wrap;html=1;align=center;" vertex="1" parent="1">
          <mxGeometry x="470" y="270" width="60" height="30" as="geometry" />
        </mxCell>
        <mxCell id="JYLx7IT0yjpOkWcfXpyr-44" value="" style="endArrow=none;html=1;rounded=0;exitX=0.5;exitY=1;exitDx=0;exitDy=0;entryX=0.5;entryY=0;entryDx=0;entryDy=0;" edge="1" parent="1" source="JYLx7IT0yjpOkWcfXpyr-4" target="JYLx7IT0yjpOkWcfXpyr-41">
          <mxGeometry relative="1" as="geometry">
            <mxPoint x="330" y="370" as="sourcePoint" />
            <mxPoint x="490" y="370" as="targetPoint" />
          </mxGeometry>
        </mxCell>
        <mxCell id="JYLx7IT0yjpOkWcfXpyr-45" value="" style="endArrow=none;html=1;rounded=0;exitX=0.5;exitY=0;exitDx=0;exitDy=0;entryX=0.5;entryY=1;entryDx=0;entryDy=0;" edge="1" parent="1" source="JYLx7IT0yjpOkWcfXpyr-42" target="JYLx7IT0yjpOkWcfXpyr-4">
          <mxGeometry relative="1" as="geometry">
            <mxPoint x="330" y="170" as="sourcePoint" />
            <mxPoint x="490" y="170" as="targetPoint" />
          </mxGeometry>
        </mxCell>
        <mxCell id="JYLx7IT0yjpOkWcfXpyr-46" value="" style="endArrow=none;html=1;rounded=0;entryX=0.5;entryY=1;entryDx=0;entryDy=0;exitX=0.5;exitY=0;exitDx=0;exitDy=0;" edge="1" parent="1" source="JYLx7IT0yjpOkWcfXpyr-43" target="JYLx7IT0yjpOkWcfXpyr-4">
          <mxGeometry relative="1" as="geometry">
            <mxPoint x="330" y="170" as="sourcePoint" />
            <mxPoint x="490" y="170" as="targetPoint" />
          </mxGeometry>
        </mxCell>
        <mxCell id="JYLx7IT0yjpOkWcfXpyr-47" value="" style="endArrow=none;html=1;rounded=0;entryX=0.5;entryY=1;entryDx=0;entryDy=0;exitX=0.5;exitY=0;exitDx=0;exitDy=0;" edge="1" parent="1" source="JYLx7IT0yjpOkWcfXpyr-15" target="JYLx7IT0yjpOkWcfXpyr-4">
          <mxGeometry relative="1" as="geometry">
            <mxPoint x="330" y="170" as="sourcePoint" />
            <mxPoint x="490" y="170" as="targetPoint" />
          </mxGeometry>
        </mxCell>
        <mxCell id="JYLx7IT0yjpOkWcfXpyr-48" value="név" style="ellipse;whiteSpace=wrap;html=1;align=center;" vertex="1" parent="1">
          <mxGeometry x="320" y="440" width="60" height="30" as="geometry" />
        </mxCell>
        <mxCell id="JYLx7IT0yjpOkWcfXpyr-49" value="lakcím" style="ellipse;whiteSpace=wrap;html=1;align=center;" vertex="1" parent="1">
          <mxGeometry x="665" y="580" width="60" height="30" as="geometry" />
        </mxCell>
        <mxCell id="JYLx7IT0yjpOkWcfXpyr-50" value="év" style="ellipse;whiteSpace=wrap;html=1;align=center;" vertex="1" parent="1">
          <mxGeometry x="470" y="560" width="60" height="30" as="geometry" />
        </mxCell>
        <mxCell id="JYLx7IT0yjpOkWcfXpyr-51" value="Diákigazolvány" style="ellipse;whiteSpace=wrap;html=1;align=center;dashed=1;" vertex="1" parent="1">
          <mxGeometry x="395" y="500" width="90" height="30" as="geometry" />
        </mxCell>
        <mxCell id="JYLx7IT0yjpOkWcfXpyr-52" value="település" style="ellipse;whiteSpace=wrap;html=1;align=center;" vertex="1" parent="1">
          <mxGeometry x="580" y="660" width="60" height="30" as="geometry" />
        </mxCell>
        <mxCell id="JYLx7IT0yjpOkWcfXpyr-53" value="utca" style="ellipse;whiteSpace=wrap;html=1;align=center;" vertex="1" parent="1">
          <mxGeometry x="665" y="660" width="60" height="30" as="geometry" />
        </mxCell>
        <mxCell id="JYLx7IT0yjpOkWcfXpyr-54" value="házszám" style="ellipse;whiteSpace=wrap;html=1;align=center;" vertex="1" parent="1">
          <mxGeometry x="745" y="660" width="60" height="30" as="geometry" />
        </mxCell>
        <mxCell id="JYLx7IT0yjpOkWcfXpyr-55" value="" style="endArrow=none;html=1;rounded=0;entryX=0.5;entryY=1;entryDx=0;entryDy=0;exitX=0.5;exitY=0;exitDx=0;exitDy=0;" edge="1" parent="1" source="JYLx7IT0yjpOkWcfXpyr-48" target="JYLx7IT0yjpOkWcfXpyr-6">
          <mxGeometry relative="1" as="geometry">
            <mxPoint x="330" y="570" as="sourcePoint" />
            <mxPoint x="490" y="570" as="targetPoint" />
          </mxGeometry>
        </mxCell>
        <mxCell id="JYLx7IT0yjpOkWcfXpyr-56" value="" style="endArrow=none;html=1;rounded=0;exitX=0.5;exitY=1;exitDx=0;exitDy=0;entryX=0.5;entryY=0;entryDx=0;entryDy=0;" edge="1" parent="1" source="JYLx7IT0yjpOkWcfXpyr-6" target="JYLx7IT0yjpOkWcfXpyr-51">
          <mxGeometry relative="1" as="geometry">
            <mxPoint x="330" y="570" as="sourcePoint" />
            <mxPoint x="490" y="570" as="targetPoint" />
          </mxGeometry>
        </mxCell>
        <mxCell id="JYLx7IT0yjpOkWcfXpyr-57" value="" style="endArrow=none;html=1;rounded=0;exitX=0.5;exitY=1;exitDx=0;exitDy=0;entryX=0.5;entryY=0;entryDx=0;entryDy=0;" edge="1" parent="1" source="JYLx7IT0yjpOkWcfXpyr-6" target="JYLx7IT0yjpOkWcfXpyr-50">
          <mxGeometry relative="1" as="geometry">
            <mxPoint x="330" y="570" as="sourcePoint" />
            <mxPoint x="490" y="570" as="targetPoint" />
          </mxGeometry>
        </mxCell>
        <mxCell id="JYLx7IT0yjpOkWcfXpyr-58" value="" style="endArrow=none;html=1;rounded=0;exitX=0.5;exitY=1;exitDx=0;exitDy=0;entryX=0.5;entryY=0;entryDx=0;entryDy=0;" edge="1" parent="1" source="JYLx7IT0yjpOkWcfXpyr-6" target="JYLx7IT0yjpOkWcfXpyr-16">
          <mxGeometry relative="1" as="geometry">
            <mxPoint x="330" y="570" as="sourcePoint" />
            <mxPoint x="490" y="570" as="targetPoint" />
          </mxGeometry>
        </mxCell>
        <mxCell id="JYLx7IT0yjpOkWcfXpyr-59" value="" style="endArrow=none;html=1;rounded=0;exitX=0.5;exitY=1;exitDx=0;exitDy=0;entryX=0.5;entryY=0;entryDx=0;entryDy=0;" edge="1" parent="1" source="JYLx7IT0yjpOkWcfXpyr-6" target="JYLx7IT0yjpOkWcfXpyr-49">
          <mxGeometry relative="1" as="geometry">
            <mxPoint x="330" y="570" as="sourcePoint" />
            <mxPoint x="490" y="570" as="targetPoint" />
          </mxGeometry>
        </mxCell>
        <mxCell id="JYLx7IT0yjpOkWcfXpyr-60" value="" style="endArrow=none;html=1;rounded=0;entryX=0.5;entryY=1;entryDx=0;entryDy=0;exitX=0.5;exitY=0;exitDx=0;exitDy=0;" edge="1" parent="1" source="JYLx7IT0yjpOkWcfXpyr-52" target="JYLx7IT0yjpOkWcfXpyr-49">
          <mxGeometry relative="1" as="geometry">
            <mxPoint x="330" y="570" as="sourcePoint" />
            <mxPoint x="490" y="570" as="targetPoint" />
          </mxGeometry>
        </mxCell>
        <mxCell id="JYLx7IT0yjpOkWcfXpyr-61" value="" style="endArrow=none;html=1;rounded=0;entryX=0.5;entryY=1;entryDx=0;entryDy=0;exitX=0.5;exitY=0;exitDx=0;exitDy=0;" edge="1" parent="1" source="JYLx7IT0yjpOkWcfXpyr-53" target="JYLx7IT0yjpOkWcfXpyr-49">
          <mxGeometry relative="1" as="geometry">
            <mxPoint x="330" y="570" as="sourcePoint" />
            <mxPoint x="490" y="570" as="targetPoint" />
          </mxGeometry>
        </mxCell>
        <mxCell id="JYLx7IT0yjpOkWcfXpyr-62" value="" style="endArrow=none;html=1;rounded=0;entryX=0.5;entryY=1;entryDx=0;entryDy=0;exitX=0.5;exitY=0;exitDx=0;exitDy=0;" edge="1" parent="1" source="JYLx7IT0yjpOkWcfXpyr-54" target="JYLx7IT0yjpOkWcfXpyr-49">
          <mxGeometry relative="1" as="geometry">
            <mxPoint x="330" y="570" as="sourcePoint" />
            <mxPoint x="490" y="570" as="targetPoint" />
          </mxGeometry>
        </mxCell>
        <mxCell id="JYLx7IT0yjpOkWcfXpyr-63" value="nyelv" style="ellipse;whiteSpace=wrap;html=1;align=center;" vertex="1" parent="1">
          <mxGeometry x="905" y="857.5" width="60" height="30" as="geometry" />
        </mxCell>
        <mxCell id="JYLx7IT0yjpOkWcfXpyr-64" value="szint" style="ellipse;whiteSpace=wrap;html=1;align=center;" vertex="1" parent="1">
          <mxGeometry x="985" y="895" width="60" height="30" as="geometry" />
        </mxCell>
        <mxCell id="JYLx7IT0yjpOkWcfXpyr-65" value="" style="endArrow=none;html=1;rounded=0;entryX=0.5;entryY=1;entryDx=0;entryDy=0;exitX=0.5;exitY=0;exitDx=0;exitDy=0;" edge="1" parent="1" source="JYLx7IT0yjpOkWcfXpyr-63" target="JYLx7IT0yjpOkWcfXpyr-7">
          <mxGeometry relative="1" as="geometry">
            <mxPoint x="280" y="850" as="sourcePoint" />
            <mxPoint x="440" y="850" as="targetPoint" />
          </mxGeometry>
        </mxCell>
        <mxCell id="JYLx7IT0yjpOkWcfXpyr-66" value="" style="endArrow=none;html=1;rounded=0;entryX=0.5;entryY=1;entryDx=0;entryDy=0;exitX=0.5;exitY=0;exitDx=0;exitDy=0;" edge="1" parent="1" source="JYLx7IT0yjpOkWcfXpyr-64" target="JYLx7IT0yjpOkWcfXpyr-7">
          <mxGeometry relative="1" as="geometry">
            <mxPoint x="280" y="850" as="sourcePoint" />
            <mxPoint x="440" y="850" as="targetPoint" />
          </mxGeometry>
        </mxCell>
        <mxCell id="JYLx7IT0yjpOkWcfXpyr-67" value="" style="endArrow=none;html=1;rounded=0;exitX=0.5;exitY=1;exitDx=0;exitDy=0;entryX=0.5;entryY=0;entryDx=0;entryDy=0;" edge="1" parent="1" source="JYLx7IT0yjpOkWcfXpyr-7" target="JYLx7IT0yjpOkWcfXpyr-17">
          <mxGeometry relative="1" as="geometry">
            <mxPoint x="280" y="850" as="sourcePoint" />
            <mxPoint x="440" y="850" as="targetPoint" />
          </mxGeometry>
        </mxCell>
        <mxCell id="JYLx7IT0yjpOkWcfXpyr-68" value="név" style="ellipse;whiteSpace=wrap;html=1;align=center;" vertex="1" parent="1">
          <mxGeometry x="930" y="230" width="60" height="30" as="geometry" />
        </mxCell>
        <mxCell id="JYLx7IT0yjpOkWcfXpyr-69" value="adószám" style="ellipse;whiteSpace=wrap;html=1;align=center;" vertex="1" parent="1">
          <mxGeometry x="995" y="270" width="60" height="30" as="geometry" />
        </mxCell>
        <mxCell id="JYLx7IT0yjpOkWcfXpyr-70" value="alapítás" style="ellipse;whiteSpace=wrap;html=1;align=center;" vertex="1" parent="1">
          <mxGeometry x="1060" y="310" width="60" height="30" as="geometry" />
        </mxCell>
        <mxCell id="JYLx7IT0yjpOkWcfXpyr-71" value="bevétel" style="ellipse;whiteSpace=wrap;html=1;align=center;" vertex="1" parent="1">
          <mxGeometry x="1130" y="350" width="60" height="30" as="geometry" />
        </mxCell>
        <mxCell id="JYLx7IT0yjpOkWcfXpyr-72" value="" style="endArrow=none;html=1;rounded=0;entryX=0.5;entryY=1;entryDx=0;entryDy=0;exitX=0.5;exitY=0;exitDx=0;exitDy=0;" edge="1" parent="1" source="JYLx7IT0yjpOkWcfXpyr-68" target="JYLx7IT0yjpOkWcfXpyr-10">
          <mxGeometry relative="1" as="geometry">
            <mxPoint x="930" y="240" as="sourcePoint" />
            <mxPoint x="1090" y="240" as="targetPoint" />
          </mxGeometry>
        </mxCell>
        <mxCell id="JYLx7IT0yjpOkWcfXpyr-73" value="" style="endArrow=none;html=1;rounded=0;exitX=0.5;exitY=0;exitDx=0;exitDy=0;" edge="1" parent="1" source="JYLx7IT0yjpOkWcfXpyr-69">
          <mxGeometry relative="1" as="geometry">
            <mxPoint x="930" y="240" as="sourcePoint" />
            <mxPoint x="1120" y="180" as="targetPoint" />
          </mxGeometry>
        </mxCell>
        <mxCell id="JYLx7IT0yjpOkWcfXpyr-74" value="" style="endArrow=none;html=1;rounded=0;entryX=0.5;entryY=1;entryDx=0;entryDy=0;exitX=0.5;exitY=0;exitDx=0;exitDy=0;" edge="1" parent="1" source="JYLx7IT0yjpOkWcfXpyr-70" target="JYLx7IT0yjpOkWcfXpyr-10">
          <mxGeometry relative="1" as="geometry">
            <mxPoint x="930" y="240" as="sourcePoint" />
            <mxPoint x="1090" y="240" as="targetPoint" />
          </mxGeometry>
        </mxCell>
        <mxCell id="JYLx7IT0yjpOkWcfXpyr-75" value="" style="endArrow=none;html=1;rounded=0;entryX=0.5;entryY=1;entryDx=0;entryDy=0;exitX=0.5;exitY=0;exitDx=0;exitDy=0;" edge="1" parent="1" source="JYLx7IT0yjpOkWcfXpyr-71" target="JYLx7IT0yjpOkWcfXpyr-10">
          <mxGeometry relative="1" as="geometry">
            <mxPoint x="930" y="240" as="sourcePoint" />
            <mxPoint x="1090" y="240" as="targetPoint" />
          </mxGeometry>
        </mxCell>
        <mxCell id="JYLx7IT0yjpOkWcfXpyr-76" value="" style="endArrow=none;html=1;rounded=0;entryX=0.5;entryY=1;entryDx=0;entryDy=0;exitX=0.5;exitY=0;exitDx=0;exitDy=0;" edge="1" parent="1" source="JYLx7IT0yjpOkWcfXpyr-18" target="JYLx7IT0yjpOkWcfXpyr-10">
          <mxGeometry relative="1" as="geometry">
            <mxPoint x="930" y="240" as="sourcePoint" />
            <mxPoint x="1090" y="240" as="targetPoint" />
          </mxGeometry>
        </mxCell>
        <mxCell id="JYLx7IT0yjpOkWcfXpyr-77" value="" style="rounded=0;whiteSpace=wrap;html=1;rotation=90;" vertex="1" parent="1">
          <mxGeometry x="395" y="300" width="90" height="40" as="geometry" />
        </mxCell>
        <mxCell id="JYLx7IT0yjpOkWcfXpyr-78" value="" style="rounded=0;whiteSpace=wrap;html=1;rotation=90;" vertex="1" parent="1">
          <mxGeometry x="340" y="265" width="90" height="40" as="geometry" />
        </mxCell>
        <mxCell id="JYLx7IT0yjpOkWcfXpyr-79" value="" style="endArrow=none;html=1;rounded=0;exitX=0;exitY=0.5;exitDx=0;exitDy=0;entryX=0.5;entryY=1;entryDx=0;entryDy=0;" edge="1" parent="1" source="JYLx7IT0yjpOkWcfXpyr-77" target="JYLx7IT0yjpOkWcfXpyr-42">
          <mxGeometry relative="1" as="geometry">
            <mxPoint x="400" y="310" as="sourcePoint" />
            <mxPoint x="560" y="310" as="targetPoint" />
          </mxGeometry>
        </mxCell>
        <mxCell id="JYLx7IT0yjpOkWcfXpyr-80" value="" style="endArrow=none;html=1;rounded=0;exitX=0;exitY=0.5;exitDx=0;exitDy=0;entryX=0.5;entryY=1;entryDx=0;entryDy=0;" edge="1" parent="1" source="JYLx7IT0yjpOkWcfXpyr-78" target="JYLx7IT0yjpOkWcfXpyr-41">
          <mxGeometry relative="1" as="geometry">
            <mxPoint x="350" y="270" as="sourcePoint" />
            <mxPoint x="510" y="270" as="targetPoint" />
          </mxGeometry>
        </mxCell>
        <mxCell id="JYLx7IT0yjpOkWcfXpyr-81" value="" style="rounded=0;whiteSpace=wrap;html=1;rotation=90;" vertex="1" parent="1">
          <mxGeometry x="95" y="345" width="90" height="40" as="geometry" />
        </mxCell>
        <mxCell id="JYLx7IT0yjpOkWcfXpyr-82" value="" style="rounded=0;whiteSpace=wrap;html=1;rotation=90;" vertex="1" parent="1">
          <mxGeometry x="35" y="320" width="90" height="40" as="geometry" />
        </mxCell>
        <mxCell id="JYLx7IT0yjpOkWcfXpyr-83" value="" style="rounded=0;whiteSpace=wrap;html=1;rotation=90;" vertex="1" parent="1">
          <mxGeometry x="-30" y="275" width="90" height="40" as="geometry" />
        </mxCell>
        <mxCell id="JYLx7IT0yjpOkWcfXpyr-84" value="" style="endArrow=none;html=1;rounded=0;exitX=0;exitY=0.5;exitDx=0;exitDy=0;entryX=0.5;entryY=1;entryDx=0;entryDy=0;" edge="1" parent="1" source="JYLx7IT0yjpOkWcfXpyr-83" target="JYLx7IT0yjpOkWcfXpyr-19">
          <mxGeometry relative="1" as="geometry">
            <mxPoint x="330" y="310" as="sourcePoint" />
            <mxPoint x="490" y="310" as="targetPoint" />
          </mxGeometry>
        </mxCell>
        <mxCell id="JYLx7IT0yjpOkWcfXpyr-85" value="" style="endArrow=none;html=1;rounded=0;exitX=0;exitY=0.5;exitDx=0;exitDy=0;entryX=0.5;entryY=1;entryDx=0;entryDy=0;" edge="1" parent="1" source="JYLx7IT0yjpOkWcfXpyr-82" target="JYLx7IT0yjpOkWcfXpyr-21">
          <mxGeometry relative="1" as="geometry">
            <mxPoint x="210" y="310" as="sourcePoint" />
            <mxPoint x="370" y="310" as="targetPoint" />
          </mxGeometry>
        </mxCell>
        <mxCell id="JYLx7IT0yjpOkWcfXpyr-86" value="" style="endArrow=none;html=1;rounded=0;exitX=0;exitY=0.5;exitDx=0;exitDy=0;entryX=0.5;entryY=1;entryDx=0;entryDy=0;" edge="1" parent="1" source="JYLx7IT0yjpOkWcfXpyr-81" target="JYLx7IT0yjpOkWcfXpyr-22">
          <mxGeometry relative="1" as="geometry">
            <mxPoint x="210" y="310" as="sourcePoint" />
            <mxPoint x="370" y="310" as="targetPoint" />
          </mxGeometry>
        </mxCell>
        <mxCell id="JYLx7IT0yjpOkWcfXpyr-87" value="" style="rounded=0;whiteSpace=wrap;html=1;rotation=90;" vertex="1" parent="1">
          <mxGeometry x="75" y="690" width="90" height="40" as="geometry" />
        </mxCell>
        <mxCell id="JYLx7IT0yjpOkWcfXpyr-88" value="" style="rounded=0;whiteSpace=wrap;html=1;rotation=90;" vertex="1" parent="1">
          <mxGeometry x="15" y="650" width="90" height="40" as="geometry" />
        </mxCell>
        <mxCell id="JYLx7IT0yjpOkWcfXpyr-89" value="" style="rounded=0;whiteSpace=wrap;html=1;rotation=90;" vertex="1" parent="1">
          <mxGeometry x="-55" y="620" width="90" height="40" as="geometry" />
        </mxCell>
        <mxCell id="JYLx7IT0yjpOkWcfXpyr-90" value="" style="endArrow=none;html=1;rounded=0;exitX=0;exitY=0.5;exitDx=0;exitDy=0;entryX=0.5;entryY=1;entryDx=0;entryDy=0;" edge="1" parent="1" source="JYLx7IT0yjpOkWcfXpyr-89" target="JYLx7IT0yjpOkWcfXpyr-27">
          <mxGeometry relative="1" as="geometry">
            <mxPoint x="20" y="560" as="sourcePoint" />
            <mxPoint x="180" y="560" as="targetPoint" />
          </mxGeometry>
        </mxCell>
        <mxCell id="JYLx7IT0yjpOkWcfXpyr-91" value="" style="endArrow=none;html=1;rounded=0;exitX=0;exitY=0.5;exitDx=0;exitDy=0;entryX=0.5;entryY=1;entryDx=0;entryDy=0;" edge="1" parent="1" source="JYLx7IT0yjpOkWcfXpyr-88" target="JYLx7IT0yjpOkWcfXpyr-28">
          <mxGeometry relative="1" as="geometry">
            <mxPoint x="20" y="560" as="sourcePoint" />
            <mxPoint x="180" y="560" as="targetPoint" />
          </mxGeometry>
        </mxCell>
        <mxCell id="JYLx7IT0yjpOkWcfXpyr-92" value="" style="endArrow=none;html=1;rounded=0;exitX=0;exitY=0.5;exitDx=0;exitDy=0;entryX=0.5;entryY=1;entryDx=0;entryDy=0;" edge="1" parent="1" source="JYLx7IT0yjpOkWcfXpyr-87" target="JYLx7IT0yjpOkWcfXpyr-29">
          <mxGeometry relative="1" as="geometry">
            <mxPoint x="20" y="560" as="sourcePoint" />
            <mxPoint x="180" y="560" as="targetPoint" />
          </mxGeometry>
        </mxCell>
        <mxCell id="JYLx7IT0yjpOkWcfXpyr-93" value="" style="rounded=0;whiteSpace=wrap;html=1;rotation=90;" vertex="1" parent="1">
          <mxGeometry x="890" y="930" width="90" height="40" as="geometry" />
        </mxCell>
        <mxCell id="JYLx7IT0yjpOkWcfXpyr-94" value="" style="rounded=0;whiteSpace=wrap;html=1;rotation=90;" vertex="1" parent="1">
          <mxGeometry x="970" y="970" width="90" height="40" as="geometry" />
        </mxCell>
        <mxCell id="JYLx7IT0yjpOkWcfXpyr-95" value="" style="endArrow=none;html=1;rounded=0;entryX=0.5;entryY=1;entryDx=0;entryDy=0;exitX=0;exitY=0.5;exitDx=0;exitDy=0;" edge="1" parent="1" source="JYLx7IT0yjpOkWcfXpyr-93" target="JYLx7IT0yjpOkWcfXpyr-63">
          <mxGeometry relative="1" as="geometry">
            <mxPoint x="590" y="930" as="sourcePoint" />
            <mxPoint x="750" y="930" as="targetPoint" />
          </mxGeometry>
        </mxCell>
        <mxCell id="JYLx7IT0yjpOkWcfXpyr-96" value="" style="endArrow=none;html=1;rounded=0;entryX=0.5;entryY=1;entryDx=0;entryDy=0;exitX=0;exitY=0.5;exitDx=0;exitDy=0;" edge="1" parent="1" source="JYLx7IT0yjpOkWcfXpyr-94" target="JYLx7IT0yjpOkWcfXpyr-64">
          <mxGeometry relative="1" as="geometry">
            <mxPoint x="590" y="930" as="sourcePoint" />
            <mxPoint x="750" y="930" as="targetPoint" />
          </mxGeometry>
        </mxCell>
        <mxCell id="JYLx7IT0yjpOkWcfXpyr-97" value="" style="rounded=0;whiteSpace=wrap;html=1;rotation=90;" vertex="1" parent="1">
          <mxGeometry x="35" y="1170" width="90" height="40" as="geometry" />
        </mxCell>
        <mxCell id="JYLx7IT0yjpOkWcfXpyr-98" value="" style="rounded=0;whiteSpace=wrap;html=1;rotation=90;" vertex="1" parent="1">
          <mxGeometry x="-30" y="1130" width="90" height="40" as="geometry" />
        </mxCell>
        <mxCell id="JYLx7IT0yjpOkWcfXpyr-99" value="" style="endArrow=none;html=1;rounded=0;exitX=0;exitY=0.5;exitDx=0;exitDy=0;" edge="1" parent="1" source="JYLx7IT0yjpOkWcfXpyr-98" target="JYLx7IT0yjpOkWcfXpyr-34">
          <mxGeometry relative="1" as="geometry">
            <mxPoint x="20" y="1150" as="sourcePoint" />
            <mxPoint x="180" y="1150" as="targetPoint" />
          </mxGeometry>
        </mxCell>
        <mxCell id="JYLx7IT0yjpOkWcfXpyr-100" value="" style="endArrow=none;html=1;rounded=0;exitX=0;exitY=0.5;exitDx=0;exitDy=0;entryX=0.5;entryY=1;entryDx=0;entryDy=0;" edge="1" parent="1" source="JYLx7IT0yjpOkWcfXpyr-97" target="JYLx7IT0yjpOkWcfXpyr-35">
          <mxGeometry relative="1" as="geometry">
            <mxPoint x="200" y="1200" as="sourcePoint" />
            <mxPoint x="180" y="1150" as="targetPoint" />
          </mxGeometry>
        </mxCell>
        <mxCell id="JYLx7IT0yjpOkWcfXpyr-101" value="" style="rounded=0;whiteSpace=wrap;html=1;rotation=90;" vertex="1" parent="1">
          <mxGeometry x="305" y="510" width="90" height="40" as="geometry" />
        </mxCell>
        <mxCell id="JYLx7IT0yjpOkWcfXpyr-102" value="" style="rounded=0;whiteSpace=wrap;html=1;rotation=90;" vertex="1" parent="1">
          <mxGeometry x="455" y="630" width="90" height="40" as="geometry" />
        </mxCell>
        <mxCell id="JYLx7IT0yjpOkWcfXpyr-104" value="" style="rounded=0;whiteSpace=wrap;html=1;rotation=90;" vertex="1" parent="1">
          <mxGeometry x="730" y="725" width="90" height="40" as="geometry" />
        </mxCell>
        <mxCell id="JYLx7IT0yjpOkWcfXpyr-105" value="" style="rounded=0;whiteSpace=wrap;html=1;rotation=90;" vertex="1" parent="1">
          <mxGeometry x="650" y="730" width="90" height="40" as="geometry" />
        </mxCell>
        <mxCell id="JYLx7IT0yjpOkWcfXpyr-106" value="" style="rounded=0;whiteSpace=wrap;html=1;rotation=90;" vertex="1" parent="1">
          <mxGeometry x="565" y="730" width="90" height="40" as="geometry" />
        </mxCell>
        <mxCell id="JYLx7IT0yjpOkWcfXpyr-107" value="" style="endArrow=none;html=1;rounded=0;exitX=0;exitY=0.5;exitDx=0;exitDy=0;entryX=0.5;entryY=1;entryDx=0;entryDy=0;" edge="1" parent="1" source="JYLx7IT0yjpOkWcfXpyr-102" target="JYLx7IT0yjpOkWcfXpyr-50">
          <mxGeometry relative="1" as="geometry">
            <mxPoint x="330" y="670" as="sourcePoint" />
            <mxPoint x="490" y="670" as="targetPoint" />
          </mxGeometry>
        </mxCell>
        <mxCell id="JYLx7IT0yjpOkWcfXpyr-108" value="" style="endArrow=none;html=1;rounded=0;exitX=0;exitY=0.5;exitDx=0;exitDy=0;entryX=0.5;entryY=1;entryDx=0;entryDy=0;" edge="1" parent="1" source="JYLx7IT0yjpOkWcfXpyr-106" target="JYLx7IT0yjpOkWcfXpyr-52">
          <mxGeometry relative="1" as="geometry">
            <mxPoint x="330" y="670" as="sourcePoint" />
            <mxPoint x="490" y="670" as="targetPoint" />
          </mxGeometry>
        </mxCell>
        <mxCell id="JYLx7IT0yjpOkWcfXpyr-109" value="" style="endArrow=none;html=1;rounded=0;exitX=0;exitY=0.5;exitDx=0;exitDy=0;entryX=0.5;entryY=1;entryDx=0;entryDy=0;" edge="1" parent="1" source="JYLx7IT0yjpOkWcfXpyr-105" target="JYLx7IT0yjpOkWcfXpyr-53">
          <mxGeometry relative="1" as="geometry">
            <mxPoint x="330" y="670" as="sourcePoint" />
            <mxPoint x="490" y="670" as="targetPoint" />
          </mxGeometry>
        </mxCell>
        <mxCell id="JYLx7IT0yjpOkWcfXpyr-110" value="" style="endArrow=none;html=1;rounded=0;exitX=0.5;exitY=1;exitDx=0;exitDy=0;entryX=0;entryY=0.5;entryDx=0;entryDy=0;" edge="1" parent="1" source="JYLx7IT0yjpOkWcfXpyr-54" target="JYLx7IT0yjpOkWcfXpyr-104">
          <mxGeometry relative="1" as="geometry">
            <mxPoint x="330" y="670" as="sourcePoint" />
            <mxPoint x="490" y="670" as="targetPoint" />
          </mxGeometry>
        </mxCell>
        <mxCell id="JYLx7IT0yjpOkWcfXpyr-111" value="" style="rounded=0;whiteSpace=wrap;html=1;rotation=90;" vertex="1" parent="1">
          <mxGeometry x="915" y="300" width="90" height="40" as="geometry" />
        </mxCell>
        <mxCell id="JYLx7IT0yjpOkWcfXpyr-112" value="" style="rounded=0;whiteSpace=wrap;html=1;rotation=90;" vertex="1" parent="1">
          <mxGeometry x="980" y="335" width="90" height="40" as="geometry" />
        </mxCell>
        <mxCell id="JYLx7IT0yjpOkWcfXpyr-113" value="" style="rounded=0;whiteSpace=wrap;html=1;rotation=90;" vertex="1" parent="1">
          <mxGeometry x="1045" y="375" width="90" height="40" as="geometry" />
        </mxCell>
        <mxCell id="JYLx7IT0yjpOkWcfXpyr-114" value="" style="rounded=0;whiteSpace=wrap;html=1;rotation=90;" vertex="1" parent="1">
          <mxGeometry x="1115" y="415" width="90" height="40" as="geometry" />
        </mxCell>
        <mxCell id="JYLx7IT0yjpOkWcfXpyr-115" value="" style="endArrow=none;html=1;rounded=0;exitX=0;exitY=0.5;exitDx=0;exitDy=0;entryX=0.5;entryY=1;entryDx=0;entryDy=0;" edge="1" parent="1" source="JYLx7IT0yjpOkWcfXpyr-111" target="JYLx7IT0yjpOkWcfXpyr-68">
          <mxGeometry relative="1" as="geometry">
            <mxPoint x="860" y="330" as="sourcePoint" />
            <mxPoint x="1020" y="330" as="targetPoint" />
          </mxGeometry>
        </mxCell>
        <mxCell id="JYLx7IT0yjpOkWcfXpyr-116" value="" style="endArrow=none;html=1;rounded=0;exitX=0;exitY=0.5;exitDx=0;exitDy=0;entryX=0.5;entryY=1;entryDx=0;entryDy=0;" edge="1" parent="1" source="JYLx7IT0yjpOkWcfXpyr-112" target="JYLx7IT0yjpOkWcfXpyr-69">
          <mxGeometry relative="1" as="geometry">
            <mxPoint x="860" y="330" as="sourcePoint" />
            <mxPoint x="1020" y="330" as="targetPoint" />
          </mxGeometry>
        </mxCell>
        <mxCell id="JYLx7IT0yjpOkWcfXpyr-117" value="" style="endArrow=none;html=1;rounded=0;exitX=0;exitY=0.5;exitDx=0;exitDy=0;entryX=0.5;entryY=1;entryDx=0;entryDy=0;" edge="1" parent="1" source="JYLx7IT0yjpOkWcfXpyr-113" target="JYLx7IT0yjpOkWcfXpyr-70">
          <mxGeometry relative="1" as="geometry">
            <mxPoint x="860" y="330" as="sourcePoint" />
            <mxPoint x="1020" y="330" as="targetPoint" />
          </mxGeometry>
        </mxCell>
        <mxCell id="JYLx7IT0yjpOkWcfXpyr-118" value="" style="endArrow=none;html=1;rounded=0;exitX=0;exitY=0.5;exitDx=0;exitDy=0;entryX=0.5;entryY=1;entryDx=0;entryDy=0;" edge="1" parent="1" source="JYLx7IT0yjpOkWcfXpyr-114" target="JYLx7IT0yjpOkWcfXpyr-71">
          <mxGeometry relative="1" as="geometry">
            <mxPoint x="860" y="330" as="sourcePoint" />
            <mxPoint x="1020" y="330" as="targetPoint" />
          </mxGeometry>
        </mxCell>
      </root>
    </mxGraphModel>
  </diagram>
</mxfile>
